<svg width="44" height="32" viewBox="0 0 44 32" fill="none" xmlns="http://www.w3.org/2000/svg">
<path d="M44 15.8621C44 15.7538 44 15.6307 43.9951 15.4878C43.9902 15.0889 43.9804 14.6408 43.9705 14.1631C43.9313 12.7892 43.8625 11.4201 43.7545 10.1299C43.6071 8.35211 43.3911 6.8698 43.0964 5.75685C42.7855 4.59538 42.176 3.5361 41.3289 2.68487C40.4818 1.83364 39.4268 1.22029 38.2692 0.906125C36.8795 0.531856 34.1589 0.3004 30.3286 0.157587C28.5067 0.0886425 26.5571 0.044321 24.6076 0.0196981C23.925 0.00984888 23.2915 0.00492459 22.7219 0H21.2781C20.7085 0.00492459 20.075 0.00984888 19.3924 0.0196981C17.4429 0.044321 15.4933 0.0886425 13.6714 0.157587C9.84107 0.305325 7.11562 0.53678 5.7308 0.906125C4.57286 1.21952 3.51739 1.83261 2.67017 2.68396C1.82295 3.5353 1.21373 4.595 0.903571 5.75685C0.604018 6.8698 0.392857 8.35211 0.245536 10.1299C0.1375 11.4201 0.0687499 12.7892 0.0294642 14.1631C0.0147321 14.6408 0.00982135 15.0889 0.00491064 15.4878C0.00491064 15.6307 0 15.7538 0 15.8621V16.1379C0 16.2462 -7.50047e-08 16.3693 0.00491064 16.5122C0.00982135 16.911 0.0196428 17.3592 0.0294642 17.8369C0.0687499 19.2108 0.1375 20.5799 0.245536 21.8701C0.392857 23.6479 0.608929 25.1302 0.903571 26.2432C1.53214 28.602 3.37857 30.4635 5.7308 31.0939C7.11562 31.4681 9.84107 31.6996 13.6714 31.8424C15.4933 31.9114 17.4429 31.9557 19.3924 31.9803C20.075 31.9901 20.7085 31.9951 21.2781 32H22.7219C23.2915 31.9951 23.925 31.9901 24.6076 31.9803C26.5571 31.9557 28.5067 31.9114 30.3286 31.8424C34.1589 31.6947 36.8844 31.4632 38.2692 31.0939C40.6214 30.4635 42.4679 28.607 43.0964 26.2432C43.396 25.1302 43.6071 23.6479 43.7545 21.8701C43.8625 20.5799 43.9313 19.2108 43.9705 17.8369C43.9853 17.3592 43.9902 16.911 43.9951 16.5122C43.9951 16.3693 44 16.2462 44 16.1379V15.8621ZM40.4643 16.1182C40.4643 16.2216 40.4643 16.3349 40.4594 16.4678C40.4545 16.852 40.4446 17.2755 40.4348 17.7335C40.4004 19.0434 40.3317 20.3533 40.2286 21.5697C40.096 23.1554 39.9094 24.4555 39.6786 25.3272C39.3741 26.4648 38.4804 27.366 37.3509 27.6664C36.3196 27.9421 33.7219 28.1637 30.1911 28.2967C28.4036 28.3656 26.4786 28.41 24.5585 28.4346C23.8857 28.4444 23.2621 28.4494 22.7022 28.4494H21.2978L19.4415 28.4346C17.5214 28.41 15.6013 28.3656 13.8089 28.2967C10.2781 28.1588 7.67545 27.9421 6.64911 27.6664C5.51964 27.361 4.62589 26.4648 4.32143 25.3272C4.09062 24.4555 3.90402 23.1554 3.77143 21.5697C3.6683 20.3533 3.60446 19.0434 3.56518 17.7335C3.55045 17.2755 3.54554 16.847 3.54063 16.4678C3.54063 16.3349 3.53571 16.2167 3.53571 16.1182V15.8818C3.53571 15.7784 3.53571 15.6651 3.54063 15.5322C3.54554 15.148 3.55536 14.7245 3.56518 14.2665C3.59955 12.9566 3.6683 11.6467 3.77143 10.4303C3.90402 8.84457 4.09062 7.54447 4.32143 6.67282C4.62589 5.53524 5.51964 4.63404 6.64911 4.33364C7.68036 4.05786 10.2781 3.83626 13.8089 3.70329C15.5964 3.63435 17.5214 3.59003 19.4415 3.5654C20.1143 3.55555 20.7379 3.55063 21.2978 3.55063H22.7022L24.5585 3.5654C26.4786 3.59003 28.3987 3.63435 30.1911 3.70329C33.7219 3.84118 36.3246 4.05786 37.3509 4.33364C38.4804 4.63897 39.3741 5.53524 39.6786 6.67282C39.9094 7.54447 40.096 8.84457 40.2286 10.4303C40.3317 11.6467 40.3955 12.9566 40.4348 14.2665C40.4496 14.7245 40.4545 15.153 40.4594 15.5322C40.4594 15.6651 40.4643 15.7833 40.4643 15.8818V16.1182ZM17.6295 22.599L29.0223 15.9508L17.6295 9.40104V22.599Z" fill="#CCCCCC"/>
</svg>
