<svg width="28" height="26" viewBox="0 0 28 26" fill="none" xmlns="http://www.w3.org/2000/svg">
<path d="M25.9271 0.00266211C25.5813 0.0286699 25.2419 0.112534 24.9221 0.250983H24.9178C24.6108 0.376814 23.1512 1.01154 20.9323 1.97364L12.9806 5.43567C7.27481 7.91888 1.66598 10.3642 1.66598 10.3642L1.73277 10.3375C1.73277 10.3375 1.34607 10.4689 0.942126 10.7551C0.692576 10.9192 0.477837 11.134 0.310904 11.3865C0.112705 11.6871 -0.0467164 12.147 0.012528 12.6225C0.109473 13.4265 0.613589 13.9087 0.975518 14.1748C1.34176 14.4443 1.69076 14.5701 1.69076 14.5701H1.69938L6.9592 16.4019C7.1951 17.1847 8.56203 21.8304 8.89057 22.9006C9.08446 23.5397 9.27296 23.9395 9.50886 24.2446C9.62304 24.4005 9.75661 24.5308 9.91711 24.6355C10.0005 24.6856 10.0895 24.7253 10.1821 24.7535L10.1282 24.7401C10.1444 24.7446 10.1573 24.758 10.1692 24.7624C10.2123 24.7747 10.2413 24.7791 10.2963 24.788C11.1289 25.0486 11.7979 24.5141 11.7979 24.5141L11.8356 24.4829L14.941 21.5599L20.1459 25.6878L20.2644 25.7401C21.3491 26.2323 22.4478 25.9584 23.0284 25.4751C23.6133 24.9885 23.8406 24.366 23.8406 24.366L23.8783 24.2658L27.9005 2.9647C28.0147 2.43911 28.0437 1.94692 27.9177 1.46921C27.7877 0.985731 27.4877 0.569912 27.0764 0.30332C26.7311 0.0863061 26.3307 -0.0184413 25.9271 0.00266211ZM25.8183 2.28544C25.814 2.35559 25.8269 2.3478 25.7968 2.48253V2.49478L21.8123 23.5743C21.7951 23.6043 21.766 23.67 21.6863 23.7357C21.6023 23.8048 21.5355 23.8482 21.1854 23.7045L14.8193 18.6591L10.9738 22.2825L11.7817 16.9486L22.1829 6.92671C22.6116 6.51469 22.4683 6.42784 22.4683 6.42784C22.4985 5.92229 21.8209 6.27974 21.8209 6.27974L8.70529 14.6792L8.70099 14.657L2.41462 12.4688V12.4644L2.39846 12.461C2.40948 12.4573 2.42027 12.4528 2.43078 12.4477L2.46525 12.4299L2.49864 12.4176C2.49864 12.4176 8.11177 9.97226 13.8175 7.48905C16.6742 6.24522 19.5524 4.99247 21.766 4.02591C23.9796 3.06492 25.6158 2.36004 25.7084 2.32218C25.7968 2.28655 25.7548 2.28655 25.8183 2.28655V2.28544Z" fill="#CCCCCC"/>
</svg>
