<svg width="33" height="24" viewBox="0 0 33 24" fill="none" xmlns="http://www.w3.org/2000/svg">
<path d="M32.45 22.9H27.5V8.04999C27.5 7.71999 27.28 7.49999 26.95 7.49999H21.45C21.12 7.49999 20.9 7.71999 20.9 8.04999V22.9H18.7V1.44999C18.7 1.11999 18.48 0.899994 18.15 0.899994H12.65C12.32 0.899994 12.1 1.11999 12.1 1.44999V22.9H9.9V11.35C9.9 11.02 9.68 10.8 9.35 10.8H3.85C3.52 10.8 3.3 11.02 3.3 11.35V22.9H1.1V23.45C1.1 23.12 0.857106 22.9 0.55 22.9C0 22.9 0 23.12 0 23.45C0 23.78 0.22 24 0.55 24H32.45C32.78 24 33 23.78 33 23.45C33 23.12 32.78 22.9 32.45 22.9ZM8.8 22.9H4.4V11.9H8.8V22.9ZM17.6 22.9H13.2V1.99999H17.6V22.9ZM26.4 22.9H22V8.59999H26.4V22.9Z" fill="#FFB800" stroke="#FFB800" stroke-width="0.7"/>
</svg>
