<svg width="14" height="14" viewBox="0 0 14 14" fill="none" xmlns="http://www.w3.org/2000/svg">
<path d="M11.6168 9.65276C11.3113 9.65388 11.0092 9.71414 10.7286 9.82993C10.448 9.94572 10.1947 10.1146 9.98391 10.3266L4.45462 7.67477C4.59064 7.27949 4.59064 6.85281 4.45462 6.45754L9.99298 3.7579C10.3897 4.15856 10.9276 4.40354 11.5023 4.44523C12.077 4.48692 12.6473 4.32234 13.1024 3.98348C13.5575 3.64462 13.8649 3.15569 13.9648 2.61172C14.0647 2.06775 13.9501 1.5076 13.6431 1.04015C13.3361 0.572704 12.8587 0.231346 12.3038 0.0824275C11.7488 -0.0664905 11.1559 -0.0123291 10.6403 0.234385C10.1246 0.481098 9.72314 0.902739 9.51381 1.41735C9.30449 1.93197 9.30229 2.50279 9.50764 3.01887L4.02371 5.69242C3.72753 5.34527 3.32658 5.09441 2.87581 4.97423C2.42504 4.85404 1.94651 4.87042 1.50583 5.02111C1.06515 5.1718 0.683886 5.44943 0.414299 5.81594C0.144712 6.18245 0 6.6199 0 7.06833C0 7.51675 0.144712 7.9542 0.414299 8.32071C0.683886 8.68722 1.06515 8.96485 1.50583 9.11554C1.94651 9.26623 2.42504 9.28261 2.87581 9.16242C3.32658 9.04224 3.72753 8.79138 4.02371 8.44423L9.49403 11.083C9.4016 11.3209 9.35399 11.5726 9.35342 11.8264C9.35342 12.2563 9.48643 12.6765 9.73564 13.034C9.98484 13.3914 10.3391 13.67 10.7535 13.8345C11.1679 13.9991 11.6239 14.0421 12.0638 13.9582C12.5038 13.8744 12.9079 13.6673 13.2251 13.3634C13.5422 13.0594 13.7583 12.6721 13.8458 12.2504C13.9333 11.8288 13.8884 11.3917 13.7167 10.9946C13.545 10.5974 13.2544 10.2579 12.8814 10.0191C12.5084 9.78024 12.0699 9.65276 11.6214 9.65276H11.6168ZM11.6168 0.958282C11.886 0.958282 12.1491 1.03477 12.3728 1.17807C12.5966 1.32138 12.771 1.52506 12.874 1.76337C12.977 2.00167 13.004 2.2639 12.9515 2.51688C12.899 2.76987 12.7694 3.00225 12.5791 3.18464C12.3887 3.36703 12.1463 3.49124 11.8823 3.54157C11.6184 3.59189 11.3447 3.56606 11.0961 3.46735C10.8474 3.36864 10.6349 3.20148 10.4854 2.98701C10.3359 2.77254 10.2561 2.52039 10.2561 2.26245C10.2561 1.91657 10.3994 1.58484 10.6546 1.34026C10.9098 1.09569 11.2559 0.958282 11.6168 0.958282ZM2.30459 8.34859C2.03546 8.34859 1.77236 8.2721 1.54859 8.1288C1.32481 7.98549 1.15039 7.78181 1.0474 7.5435C0.944405 7.30519 0.917457 7.04297 0.969963 6.78998C1.02247 6.537 1.15207 6.30462 1.34238 6.12223C1.53269 5.93984 1.77515 5.81563 2.03912 5.7653C2.30308 5.71498 2.57669 5.74081 2.82534 5.83952C3.07399 5.93823 3.28651 6.10539 3.43604 6.31986C3.58556 6.53433 3.66537 6.78648 3.66537 7.04442C3.66537 7.3903 3.522 7.72203 3.26681 7.9666C3.01161 8.21118 2.66549 8.34859 2.30459 8.34859ZM11.6168 13.1306C11.3477 13.1306 11.0846 13.0541 10.8608 12.9108C10.6371 12.7675 10.4626 12.5638 10.3596 12.3255C10.2567 12.0872 10.2297 11.8249 10.2822 11.5719C10.3347 11.319 10.4643 11.0866 10.6546 10.9042C10.8449 10.7218 11.0874 10.5976 11.3514 10.5473C11.6153 10.4969 11.8889 10.5228 12.1376 10.6215C12.3862 10.7202 12.5988 10.8874 12.7483 11.1018C12.8978 11.3163 12.9776 11.5684 12.9776 11.8264C12.9776 12.1723 12.8343 12.504 12.5791 12.7486C12.3239 12.9931 11.9777 13.1306 11.6168 13.1306Z" fill="#222222"/>
</svg>
