<svg width="33" height="33" viewBox="0 0 33 33" fill="none" xmlns="http://www.w3.org/2000/svg">
<g clip-path="url(#clip0)">
<path d="M32.45 31.9H27.5V17.05C27.5 16.72 27.28 16.5 26.95 16.5H21.45C21.12 16.5 20.9 16.72 20.9 17.05V31.9H18.7V10.45C18.7 10.12 18.48 9.90002 18.15 9.90002H12.65C12.32 9.90002 12.1 10.12 12.1 10.45V31.9H9.9V20.35C9.9 20.02 9.68 19.8 9.35 19.8H3.85C3.52 19.8 3.3 20.02 3.3 20.35V31.9H1.1V32.45C1.1 32.12 0.857106 31.9 0.55 31.9C0 31.9 0 32.12 0 32.45C0 32.78 0.22 33 0.55 33H32.45C32.78 33 33 32.78 33 32.45C33 32.12 32.78 31.9 32.45 31.9ZM8.8 31.9H4.4V20.9H8.8V31.9ZM17.6 31.9H13.2V11H17.6V31.9ZM26.4 31.9H22V17.6H26.4V31.9Z" fill="#222222" fill-opacity="0.5" stroke="#222222" stroke-opacity="0.5" stroke-width="0.7"/>
</g>
<defs>
<clipPath id="clip0">
<rect width="33" height="33" fill="white"/>
</clipPath>
</defs>
</svg>
