<svg width="52" height="50" viewBox="0 0 52 50" fill="none" xmlns="http://www.w3.org/2000/svg">
<g clip-path="url(#clip0)">
<path d="M5.92871 34.2635V32.8113H9.229C9.74731 32.8113 10.1752 32.4022 10.1752 31.8882C10.1752 31.3742 9.74742 30.9651 9.229 30.9651H1.58531C1.067 30.9651 0.639062 31.3742 0.639062 31.8882C0.639062 32.4022 1.06689 32.8113 1.58531 32.8113H4.03631V34.362C4.03631 35.33 4.84582 36.1096 5.83185 36.1096H9.9824C10.0366 38.8508 12.3488 41.0571 15.1741 41.0571C17.9994 41.0571 20.3116 38.8508 20.3658 36.1096H38.0092C38.0634 38.8508 40.3755 41.0571 43.2009 41.0571C46.0262 41.0571 48.3384 38.8508 48.3926 36.1096H50.8447C51.363 36.1096 51.7909 35.7006 51.7909 35.1866V26.9407C51.791 24.8596 50.2355 23.1309 48.2019 22.7833L46.9456 17.9044C47.2943 17.7699 47.5445 17.4384 47.5445 17.0459V16.2213C47.5445 14.344 45.9729 12.8245 44.0504 12.8245H38.2022V11.2737C38.2022 10.3057 37.3927 9.52603 36.4067 9.52603H5.83175C4.84572 9.52603 4.03621 10.3057 4.03621 11.2737V25.2917C4.03621 25.8056 4.46402 26.2148 4.98246 26.2148C5.50078 26.2148 5.92871 25.8057 5.92871 25.2917V11.3722H36.3096V25.2919C36.3096 25.8058 36.7374 26.215 37.2559 26.215C37.7742 26.215 38.2021 25.8059 38.2021 25.2919V24.5655H47.4378L47.4432 24.566L47.4523 24.5656C48.4655 24.5676 49.3338 25.1683 49.7052 26.0179H47.4474C46.9291 26.0179 46.5012 26.4269 46.5012 26.9409V28.5901C46.5012 30.0127 47.6917 31.1623 49.146 31.1623H49.8984V34.2637H48.071C47.3371 32.3386 45.4304 30.9653 43.2009 30.9653C40.9714 30.9653 39.0645 32.3386 38.3308 34.2637H38.2019V28.59C38.2019 28.0761 37.7741 27.6669 37.2557 27.6669C36.7374 27.6669 36.3094 28.076 36.3094 28.59V34.2635H20.0442C19.3104 32.3384 17.4036 30.9651 15.1741 30.9651C12.9446 30.9651 11.0378 32.3384 10.304 34.2635H5.92871ZM38.2022 14.6706H44.0504C44.9031 14.6706 45.5963 15.3171 45.6489 16.1228H38.2022V14.6706ZM38.2022 22.7195V17.9689H45.011L46.2343 22.7195H38.2022ZM15.1741 39.2112C13.3503 39.2112 11.8738 37.7715 11.8738 36.0113C11.8738 34.2511 13.3503 32.8114 15.1741 32.8114C16.998 32.8114 18.4744 34.2511 18.4744 36.0113C18.4744 37.7715 16.998 39.2112 15.1741 39.2112ZM43.2011 39.2112C41.3772 39.2112 39.9008 37.7715 39.9008 36.0113C39.9008 34.2511 41.3772 32.8114 43.2011 32.8114C45.0249 32.8114 46.5014 34.2511 46.5014 36.0113C46.5014 37.7715 45.0249 39.2112 43.2011 39.2112ZM49.8986 29.3161H49.1462C48.7272 29.3161 48.3938 28.9861 48.3938 28.59V27.8638H49.8985L49.8986 29.3161Z" fill="#0153B9" stroke="#0153B9" stroke-width="0.3"/>
<path d="M15.174 34.4138C14.2666 34.4138 13.5284 35.1305 13.5284 36.0115C13.5284 36.8925 14.2666 37.6091 15.174 37.6091C16.0814 37.6091 16.8195 36.8925 16.8195 36.0115C16.8195 35.1305 16.0814 34.4138 15.174 34.4138Z" fill="#0153B9"/>
<path d="M43.201 34.4138C42.2936 34.4138 41.5554 35.1305 41.5554 36.0115C41.5554 36.8925 42.2936 37.6091 43.201 37.6091C44.1083 37.6091 44.8465 36.8925 44.8465 36.0115C44.8465 35.1305 44.1083 34.4138 43.201 34.4138Z" fill="#0153B9"/>
<path d="M33.8587 31.1155H21.9685C21.5288 31.1155 21.1722 31.4616 21.1722 31.8886C21.1722 32.3155 21.5287 32.6616 21.9685 32.6616H33.8587C34.2984 32.6616 34.6549 32.3155 34.6549 31.8886C34.6549 31.4616 34.2985 31.1155 33.8587 31.1155Z" fill="#0153B9"/>
<path d="M13.4754 27.8171H3.2838C2.84411 27.8171 2.48755 28.1632 2.48755 28.5902C2.48755 29.0172 2.84401 29.3633 3.2838 29.3633H13.4754C13.9151 29.3633 14.2717 29.0172 14.2717 28.5902C14.2717 28.1632 13.9151 27.8171 13.4754 27.8171Z" fill="#0153B9"/>
<path d="M28.4768 17.3238C28.1659 17.0219 27.6616 17.0219 27.3508 17.3239L20.27 24.1985L16.5865 20.6222C16.2755 20.3202 15.7714 20.3202 15.4605 20.6222C15.1496 20.9241 15.1496 21.4135 15.4605 21.7154L19.7071 25.8384C19.8625 25.9894 20.0663 26.0648 20.27 26.0648C20.4737 26.0648 20.6776 25.9894 20.833 25.8384L28.4767 18.4171C28.7876 18.1151 28.7876 17.6257 28.4768 17.3238Z" fill="#0153B9"/>
</g>
<defs>
<clipPath id="clip0">
<rect width="50.852" height="49.3721" fill="white" transform="translate(0.789062 0.605713)"/>
</clipPath>
</defs>
</svg>
