<svg width="38" height="42" viewBox="0 0 38 42" fill="none" xmlns="http://www.w3.org/2000/svg">
<g clip-path="url(#clip0)">
<path d="M33.3595 7.63574H4.01621C1.88807 7.63574 0.155273 9.55101 0.155273 11.9033V30.6805C0.155273 33.0328 1.88807 34.948 4.01621 34.948H33.3595C35.4876 34.948 37.2204 33.0328 37.2204 30.6805V11.9033C37.2205 9.55101 35.4877 7.63574 33.3595 7.63574ZM35.6761 30.6804C35.6761 32.0922 34.6368 33.241 33.3595 33.241H4.01621C2.73898 33.241 1.69963 32.0922 1.69963 30.6804V11.9033C1.69963 10.4916 2.73898 9.34281 4.01621 9.34281H33.3595C34.6367 9.34281 35.676 10.4916 35.676 11.9033V30.6804H35.6761Z" fill="#0153B9"/>
<path d="M36.4483 12.7566H0.927489C0.501239 12.7566 0.155273 13.139 0.155273 13.6101V18.7312C0.155273 19.2023 0.501239 19.5847 0.927489 19.5847H36.4483C36.8746 19.5847 37.2205 19.2023 37.2205 18.7312V13.6101C37.2205 13.139 36.8745 12.7566 36.4483 12.7566ZM35.6761 17.8776H1.69963V14.4636H35.676V17.8776H35.6761Z" fill="#0153B9"/>
<path d="M14.8268 24.7058H5.56055C5.1343 24.7058 4.78833 25.0882 4.78833 25.5593C4.78833 26.0305 5.1343 26.4128 5.56055 26.4128H14.8268C15.2531 26.4128 15.5991 26.0304 15.5991 25.5593C15.5991 25.0881 15.2531 24.7058 14.8268 24.7058Z" fill="#0153B9"/>
<path d="M14.8268 28.1199H5.56055C5.1343 28.1199 4.78833 28.5023 4.78833 28.9734C4.78833 29.4445 5.1343 29.8269 5.56055 29.8269H14.8268C15.2531 29.8269 15.5991 29.4445 15.5991 28.9734C15.599 28.5023 15.2531 28.1199 14.8268 28.1199Z" fill="#0153B9"/>
<path d="M30.2708 22.9988H28.7265C27.4493 22.9988 26.4099 24.1476 26.4099 25.5593V27.2663C26.4099 28.678 27.4493 29.8268 28.7265 29.8268H30.2708C31.5481 29.8268 32.5874 28.678 32.5874 27.2663V25.5593C32.5874 24.1477 31.5481 22.9988 30.2708 22.9988ZM31.0431 27.2664C31.0431 27.7375 30.6971 28.1199 30.2708 28.1199H28.7265C28.3002 28.1199 27.9543 27.7375 27.9543 27.2664V25.5594C27.9543 25.0882 28.3002 24.7058 28.7265 24.7058H30.2708C30.6971 24.7058 31.0431 25.0882 31.0431 25.5594V27.2664Z" fill="#0153B9"/>
</g>
<defs>
<clipPath id="clip0">
<rect width="37.0652" height="40.9683" fill="white" transform="translate(0.155273 0.807617)"/>
</clipPath>
</defs>
</svg>
