<svg width="38" height="37" viewBox="0 0 38 37" fill="none" xmlns="http://www.w3.org/2000/svg">
<g clip-path="url(#clip0)">
<path d="M34.4686 10.5991L34.4674 10.5713C34.4512 10.2282 34.4405 9.86528 34.4339 9.46145C34.4036 7.49216 32.7729 5.86321 30.7212 5.75313C26.4436 5.52396 23.1345 4.18494 20.3071 1.53933L20.283 1.51726C19.3608 0.70551 17.9697 0.70551 17.0471 1.51726L17.023 1.53933C14.1956 4.18494 10.8865 5.52396 6.60894 5.7534C4.55758 5.86321 2.92659 7.49216 2.89622 9.46173C2.88998 9.86283 2.87891 10.2258 2.86273 10.5713L2.86102 10.6359C2.77786 14.8233 2.67454 20.0346 4.49059 24.7648C5.48917 27.366 7.0015 29.6271 8.98531 31.4858C11.2447 33.6025 14.2041 35.2829 17.7812 36.4803C17.8976 36.5192 18.0185 36.5508 18.1417 36.5745C18.3154 36.6078 18.4902 36.6244 18.6651 36.6244C18.8399 36.6244 19.0151 36.6078 19.1885 36.5745C19.3117 36.5508 19.4335 36.519 19.5504 36.4797C23.1232 35.2802 26.0795 33.5989 28.3369 31.4825C30.3198 29.6233 31.8322 27.3616 32.8316 24.7599C34.6545 20.0156 34.5514 14.7944 34.4686 10.5991ZM30.7834 24.0348C28.868 29.0203 24.958 32.4441 18.83 34.5014C18.8081 34.5085 18.7849 34.5148 18.7607 34.5194C18.6974 34.5314 18.633 34.5314 18.5689 34.5191C18.545 34.5145 18.5217 34.5085 18.5002 34.5014C12.3657 32.4479 8.4531 29.026 6.53912 24.0402C4.86527 19.6801 4.96007 14.8963 5.04381 10.6759L5.04438 10.6525C5.06141 10.2898 5.07276 9.90997 5.07901 9.49252C5.09263 8.61809 5.81815 7.89463 6.73071 7.84586C9.15136 7.71615 11.2779 7.26709 13.232 6.47305C15.1834 5.6801 16.9166 4.56234 18.53 3.05601C18.612 2.98953 18.7184 2.98925 18.8002 3.05601C20.4139 4.56234 22.147 5.6801 24.0982 6.47305C26.0522 7.26709 28.1788 7.71615 30.5997 7.84586C31.5123 7.89463 32.2378 8.61809 32.2511 9.49279C32.2577 9.91242 32.269 10.2923 32.2861 10.6525C32.3695 14.8777 32.462 19.6654 30.7834 24.0348Z" fill="#0153B9"/>
<path d="M18.6644 9.86621C13.5517 9.86621 9.39246 13.8593 9.39246 18.7671C9.39246 23.6753 13.5517 27.6684 18.6644 27.6684C23.7767 27.6684 27.9363 23.6753 27.9363 18.7671C27.9363 13.8593 23.7767 9.86621 18.6644 9.86621ZM18.6644 25.5723C14.7555 25.5723 11.5755 22.5196 11.5755 18.7671C11.5755 15.0147 14.7555 11.9619 18.6644 11.9619C22.5729 11.9619 25.7529 15.0147 25.7529 18.7671C25.7529 22.5196 22.5729 25.5723 18.6644 25.5723Z" fill="#0153B9"/>
<path d="M21.3292 16.0037L17.0226 20.1379L15.8537 19.0158C15.4274 18.6065 14.7362 18.6065 14.3099 19.0158C13.8838 19.4251 13.8838 20.0886 14.3099 20.4976L16.2509 22.3609C16.464 22.5656 16.7433 22.6677 17.0226 22.6677C17.3019 22.6677 17.5812 22.5656 17.7944 22.3609L22.873 17.4855C23.2991 17.0762 23.2991 16.4127 22.873 16.0037C22.4467 15.5941 21.7555 15.5941 21.3292 16.0037Z" fill="#0153B9"/>
</g>
<defs>
<clipPath id="clip0">
<rect width="37.2045" height="35.716" fill="white" transform="translate(0.0626221 0.908447)"/>
</clipPath>
</defs>
</svg>
