<svg width="38" height="37" viewBox="0 0 38 37" fill="none" xmlns="http://www.w3.org/2000/svg">
<g clip-path="url(#clip0)">
<path d="M37.9218 16.1977C37.7927 15.934 37.5173 15.7653 37.2125 15.7653H34.8956C33.4225 8.09107 26.4028 2.25732 17.9893 2.25732C8.50705 2.25732 0.791626 9.66406 0.791626 18.7669C0.791626 27.8697 8.50626 35.2757 17.9893 35.2757C24.1089 35.2757 29.8161 32.1137 32.8834 27.0255C33.3156 26.3074 33.0607 25.3902 32.3119 24.9745C31.5647 24.5588 30.6085 24.8035 30.177 25.5216C27.6662 29.6866 22.9959 32.2748 17.9893 32.2748C10.2311 32.2748 3.91832 26.2154 3.91832 18.7684C3.91832 11.3199 10.2311 5.26044 17.9893 5.26044C24.6717 5.26044 30.2705 9.7598 31.6969 15.766H29.3981C29.0934 15.766 28.8187 15.9347 28.6889 16.1984C28.5599 16.4621 28.6018 16.7729 28.7966 16.9971L32.7053 21.4995C32.8541 21.6705 33.0734 21.7692 33.3061 21.7692C33.5381 21.7692 33.7581 21.6697 33.9061 21.4995L37.8149 16.9971C38.0096 16.7722 38.0508 16.4614 37.9218 16.1977Z" fill="#0153B9"/>
<path d="M17.9893 6.00977C17.1257 6.00977 16.426 6.68152 16.426 7.51057V16.6172C15.7191 17.0929 15.2537 17.8771 15.2537 18.7677C15.2537 20.2161 16.4814 21.3947 17.9901 21.3947C18.4033 21.3947 18.7928 21.2997 19.1442 21.1409L24.5823 24.1539C24.8293 24.2914 25.0968 24.356 25.3628 24.356C25.9026 24.356 26.4282 24.087 26.718 23.6052C27.1494 22.8886 26.8937 21.9699 26.1449 21.5558L20.7012 18.5382C20.6284 17.7449 20.1986 17.0519 19.5543 16.6187V7.51057C19.5527 6.68228 18.8521 6.00977 17.9893 6.00977ZM17.9893 19.8924C17.3426 19.8924 16.817 19.387 16.817 18.7677C16.817 18.1476 17.3434 17.6423 17.9893 17.6423C18.6352 17.6423 19.1616 18.1476 19.1616 18.7677C19.1616 19.387 18.6352 19.8924 17.9893 19.8924Z" fill="#0153B9"/>
</g>
<defs>
<clipPath id="clip0">
<rect width="37.2045" height="35.716" fill="white" transform="translate(0.791626 0.908447)"/>
</clipPath>
</defs>
</svg>
