<svg width="13" height="13" viewBox="0 0 13 13" fill="none" xmlns="http://www.w3.org/2000/svg">
<path d="M12.0161 6.41114L6.78694 1.18575C6.74929 1.14802 6.70457 1.1181 6.65533 1.09767C6.6061 1.07725 6.55332 1.06674 6.50002 1.06674C6.44672 1.06674 6.39395 1.07725 6.34472 1.09767C6.29548 1.1181 6.25076 1.14802 6.21311 1.18575L0.983911 6.41114C0.831567 6.56348 0.745239 6.77042 0.745239 6.98624C0.745239 7.43438 1.10959 7.79874 1.55774 7.79874H2.10872V11.5274C2.10872 11.7521 2.29026 11.9336 2.51497 11.9336H5.68752V9.08985H7.1094V11.9336H10.4851C10.7098 11.9336 10.8913 11.7521 10.8913 11.5274V7.79874H11.4423C11.6581 7.79874 11.8651 7.71368 12.0174 7.56007C12.3335 7.24268 12.3335 6.72852 12.0161 6.41114Z" fill="#222222" fill-opacity="0.5"/>
</svg>
