<svg width="19" height="19" viewBox="0 0 19 19" fill="none" xmlns="http://www.w3.org/2000/svg">
<path d="M17.8125 16.9753L13.3297 12.4687C14.4014 11.1757 14.9338 9.51948 14.8163 7.84416C14.6988 6.16883 13.9405 4.60314 12.6988 3.4723C11.4572 2.34145 9.82761 1.73237 8.14863 1.77156C6.46964 1.81074 4.87028 2.49519 3.68274 3.68274C2.49519 4.87028 1.81074 6.46964 1.77156 8.14863C1.73237 9.82761 2.34145 11.4572 3.4723 12.6988C4.60314 13.9405 6.16883 14.6988 7.84416 14.8163C9.51948 14.9338 11.1757 14.4014 12.4687 13.3297L16.9753 17.8125L17.8125 16.9753ZM2.96874 8.31249C2.96874 7.2556 3.28215 6.22244 3.86933 5.34367C4.45651 4.46489 5.29109 3.77997 6.26753 3.37551C7.24397 2.97106 8.31842 2.86523 9.35501 3.07142C10.3916 3.27761 11.3438 3.78656 12.0911 4.53389C12.8384 5.28123 13.3474 6.23339 13.5536 7.26998C13.7598 8.30657 13.6539 9.38102 13.2495 10.3575C12.845 11.3339 12.1601 12.1685 11.2813 12.7557C10.4025 13.3428 9.36939 13.6562 8.31249 13.6562C6.89524 13.6562 5.53604 13.0932 4.53389 12.0911C3.53174 11.0889 2.96874 9.72975 2.96874 8.31249Z" fill="#0153B9"/>
</svg>
