<svg width="16" height="17" viewBox="0 0 16 17" fill="none" xmlns="http://www.w3.org/2000/svg">
<g clip-path="url(#clip0)">
<path fill-rule="evenodd" clip-rule="evenodd" d="M11.7239 4.79219L4.72388 8.29219L4.27588 7.39819L11.2759 3.89819L11.7239 4.79219ZM11.2759 13.7922L4.27588 10.2922L4.72388 9.39819L11.7239 12.8982L11.2759 13.7922Z" fill="#FFA800"/>
<path fill-rule="evenodd" clip-rule="evenodd" d="M13.5 4.84521C13.8978 4.84521 14.2794 4.68718 14.5607 4.40587C14.842 4.12457 15 3.74304 15 3.34521C15 2.94739 14.842 2.56586 14.5607 2.28455C14.2794 2.00325 13.8978 1.84521 13.5 1.84521C13.1022 1.84521 12.7206 2.00325 12.4393 2.28455C12.158 2.56586 12 2.94739 12 3.34521C12 3.74304 12.158 4.12457 12.4393 4.40587C12.7206 4.68718 13.1022 4.84521 13.5 4.84521ZM13.5 5.84521C14.163 5.84521 14.7989 5.58182 15.2678 5.11298C15.7366 4.64414 16 4.00826 16 3.34521C16 2.68217 15.7366 2.04629 15.2678 1.57745C14.7989 1.10861 14.163 0.845215 13.5 0.845215C12.837 0.845215 12.2011 1.10861 11.7322 1.57745C11.2634 2.04629 11 2.68217 11 3.34521C11 4.00826 11.2634 4.64414 11.7322 5.11298C12.2011 5.58182 12.837 5.84521 13.5 5.84521ZM13.5 15.8452C13.8978 15.8452 14.2794 15.6872 14.5607 15.4059C14.842 15.1246 15 14.743 15 14.3452C15 13.9474 14.842 13.5659 14.5607 13.2846C14.2794 13.0033 13.8978 12.8452 13.5 12.8452C13.1022 12.8452 12.7206 13.0033 12.4393 13.2846C12.158 13.5659 12 13.9474 12 14.3452C12 14.743 12.158 15.1246 12.4393 15.4059C12.7206 15.6872 13.1022 15.8452 13.5 15.8452ZM13.5 16.8452C14.163 16.8452 14.7989 16.5818 15.2678 16.113C15.7366 15.6441 16 15.0083 16 14.3452C16 13.6822 15.7366 13.0463 15.2678 12.5774C14.7989 12.1086 14.163 11.8452 13.5 11.8452C12.837 11.8452 12.2011 12.1086 11.7322 12.5774C11.2634 13.0463 11 13.6822 11 14.3452C11 15.0083 11.2634 15.6441 11.7322 16.113C12.2011 16.5818 12.837 16.8452 13.5 16.8452ZM2.5 10.3452C2.89782 10.3452 3.27936 10.1872 3.56066 9.90588C3.84196 9.62457 4 9.24304 4 8.84521C4 8.44739 3.84196 8.06586 3.56066 7.78455C3.27936 7.50325 2.89782 7.34521 2.5 7.34521C2.10218 7.34521 1.72064 7.50325 1.43934 7.78455C1.15804 8.06586 1 8.44739 1 8.84521C1 9.24304 1.15804 9.62457 1.43934 9.90588C1.72064 10.1872 2.10218 10.3452 2.5 10.3452ZM2.5 11.3452C3.16304 11.3452 3.79893 11.0818 4.26777 10.613C4.73661 10.1441 5 9.50826 5 8.84521C5 8.18217 4.73661 7.54629 4.26777 7.07745C3.79893 6.60861 3.16304 6.34521 2.5 6.34521C1.83696 6.34521 1.20107 6.60861 0.732233 7.07745C0.263392 7.54629 0 8.18217 0 8.84521C0 9.50826 0.263392 10.1441 0.732233 10.613C1.20107 11.0818 1.83696 11.3452 2.5 11.3452Z" fill="#FFA800"/>
</g>
<defs>
<clipPath id="clip0">
<rect width="16" height="16" fill="white" transform="translate(0 0.845215)"/>
</clipPath>
</defs>
</svg>
