<svg width="17" height="16" viewBox="0 0 17 16" fill="none" xmlns="http://www.w3.org/2000/svg">
<path d="M11.1312 5.89978L11.0149 5.66398L8.90988 1.39653L8.90967 1.3961C8.9009 1.37828 8.88644 1.36382 8.86863 1.35505L8.86805 1.35477C8.82348 1.33276 8.76575 1.35034 8.74132 1.39825C8.7412 1.39849 8.74108 1.39872 8.74097 1.39895L6.63719 5.66398L6.52088 5.89978L6.26069 5.93759L1.55184 6.62194L1.55064 6.62212C1.53198 6.62478 1.5136 6.63358 1.49829 6.64893C1.48123 6.66679 1.47185 6.69065 1.47218 6.71537C1.47251 6.74039 1.48276 6.76425 1.50068 6.78172L1.50071 6.78175L4.90762 10.1033L5.09583 10.2868L5.05137 10.5459L4.24647 15.2362L4.24636 15.2369C4.24341 15.2539 4.2453 15.2715 4.2518 15.2875C4.25831 15.3035 4.26917 15.3174 4.28317 15.3275C4.29716 15.3377 4.31372 15.3438 4.33097 15.345C4.34822 15.3462 4.36547 15.3426 4.38076 15.3345L4.38153 15.3341L8.59335 13.1197L8.82603 12.9974L9.05871 13.1197L13.2705 15.3341L13.2728 15.3353C13.2875 15.3431 13.3079 15.347 13.3287 15.3434L13.3294 15.3433C13.3812 15.3343 13.4142 15.286 13.4056 15.2366L13.4056 15.2362L12.6007 10.5459L12.5562 10.2868L12.7444 10.1033L16.1504 6.78265C16.1505 6.78257 16.1506 6.78249 16.1507 6.7824L11.1312 5.89978ZM11.1312 5.89978L11.3914 5.93759M11.1312 5.89978L11.3914 5.93759M11.3914 5.93759L16.0986 6.62171L11.3914 5.93759Z" stroke="#FFC43B"/>
</svg>
