<svg width="205" height="50" viewBox="0 0 205 50" fill="none" xmlns="http://www.w3.org/2000/svg">
<path d="M107.974 15.8174C106.438 15.2688 104.816 14.9921 103.183 15.0002C97.9088 15.0002 94.1818 17.6334 94.1591 21.4018C94.1158 24.1716 96.8012 25.7328 98.8307 26.6662C100.916 27.6221 101.613 28.2172 101.603 29.0651C101.592 30.3715 99.9362 30.9544 98.412 30.9544C96.2938 30.9544 95.145 30.6691 93.3733 29.9353L92.7154 29.6276L91.9646 33.981C93.2537 34.5007 95.5637 34.9572 97.9479 35C103.566 35 107.229 32.3892 107.27 28.364C107.314 26.1567 105.876 24.4814 102.813 23.0996C100.965 22.2089 99.8083 21.6016 99.8083 20.6885C99.8083 19.8814 100.796 19.0336 102.859 19.0336C104.227 18.9997 105.588 19.2489 106.854 19.7652L107.359 19.9874L108.1 15.795L107.974 15.8174ZM121.683 15.3609H117.558C116.269 15.3609 115.312 15.7013 114.743 16.9649L106.815 34.7228H112.423L113.553 31.8145L120.394 31.8246C120.565 32.5033 121.048 34.7208 121.048 34.7208H126L121.683 15.3609ZM86.565 15.2019H91.9048L88.5636 34.572H83.2238L86.565 15.1918V15.2019ZM72.9876 25.8693L73.5341 28.5657L78.7646 15.3609H84.4262L76.0029 34.6902H70.3661L65.7461 18.3223C65.7107 18.1863 65.6477 18.0589 65.5608 17.9478C65.4739 17.8367 65.365 17.7443 65.2408 17.6762C63.5813 16.8233 61.8208 16.1777 60 15.7543L60.0639 15.3487H68.679C69.8402 15.3915 70.7848 15.7543 71.1066 16.9853L72.9876 25.8795V25.8693ZM115.075 27.8544L117.214 22.4311C117.181 22.482 117.653 21.3162 117.921 20.5825L118.286 22.2476L119.524 27.8422H115.075V27.8544Z" fill="#CCCCCC"/>
<path opacity="0.5" d="M31.8188 39.0167C29.0466 39.0171 26.3365 38.1955 24.0312 36.6557C21.726 35.1158 19.9291 32.927 18.8678 30.3659C17.8065 27.8049 17.5285 24.9866 18.069 22.2676C18.6094 19.5486 19.944 17.0508 21.904 15.0903C23.8639 13.1297 26.3613 11.7944 29.0802 11.2531C31.799 10.7119 34.6174 10.9891 37.1787 12.0496C39.7401 13.1101 41.9295 14.9063 43.47 17.2111C45.0105 19.5159 45.833 22.2258 45.8334 24.998V25.0001C45.8295 28.716 44.3518 32.2786 41.7245 34.9063C39.0971 37.5341 35.5347 39.0123 31.8188 39.0167Z" fill="#CCCCCC"/>
<path d="M18.1812 39.0167C15.409 39.0167 12.699 38.1947 10.394 36.6545C8.08895 35.1143 6.2924 32.9252 5.23151 30.364C4.17062 27.8028 3.89305 24.9845 4.43388 22.2656C4.97472 19.5466 6.30968 17.0491 8.26994 15.0888C10.2302 13.1285 12.7277 11.7936 15.4467 11.2527C18.1657 10.7119 20.984 10.9895 23.5452 12.0504C26.1064 13.1112 28.2955 14.9078 29.8357 17.2128C31.3758 19.5179 32.1979 22.2278 32.1979 25.0001C32.194 28.7163 30.716 32.2793 28.0882 34.9071C25.4604 37.5349 21.8975 39.0129 18.1812 39.0167Z" fill="#CCCCCC"/>
<g clip-path="url(#clip0)">
<path d="M136 33.9036V15.0095H143.138C143.739 15.2232 144.272 15.5862 144.684 16.0624C145.096 16.5386 145.373 17.1114 145.487 17.7238C146.26 20.4231 147.152 23.0926 147.999 25.773C148.069 25.9942 148.178 26.1978 148.267 26.4095H148.436C148.525 26.1978 148.634 25.9956 148.704 25.773C149.622 22.8565 150.553 19.9264 151.466 16.995C151.59 16.5773 151.813 16.1938 152.118 15.8758C152.423 15.5577 152.801 15.3139 153.22 15.1642C153.339 15.1154 153.448 15.0584 153.568 15H160.704V33.8548H154.757V23.3098C154.781 23.1684 154.774 23.0237 154.737 22.885C154.675 22.7314 154.554 22.607 154.4 22.5376C154.301 22.5091 154.112 22.6529 154.013 22.7588C153.943 22.8677 153.896 22.989 153.874 23.1157C153.139 25.4581 152.407 27.8101 151.663 30.1525C151.276 31.3956 150.88 32.6293 150.493 33.8643H146.231C146.171 33.6906 146.102 33.5264 146.052 33.3635C144.972 29.9991 143.911 26.6063 142.842 23.2229C142.824 23.0794 142.777 22.9408 142.702 22.8158C142.603 22.7004 142.415 22.5444 142.284 22.5647C142.152 22.5851 142.016 22.7669 141.957 22.9121C141.92 23.0509 141.914 23.1955 141.937 23.3369V33.9118C139.926 33.9036 137.962 33.9036 136 33.9036Z" fill="#B2B2B2"/>
<path d="M182.793 15.0095V33.8738H176.844V23.0777C176.861 22.9495 176.858 22.8196 176.834 22.6923C176.784 22.5491 176.677 22.4311 176.537 22.3639C176.448 22.3354 176.269 22.4412 176.18 22.5376C176.086 22.6678 176.012 22.811 175.962 22.9624C174.476 26.0756 172.968 29.1794 171.496 32.3036C171.3 32.81 170.939 33.2404 170.469 33.5293C169.998 33.8181 169.443 33.9495 168.889 33.9036C167.104 33.8751 165.32 33.8941 163.466 33.8941V15H169.415V25.6034C169.393 25.7313 169.396 25.8621 169.425 25.9888C169.483 26.1438 169.6 26.2714 169.751 26.3457C169.85 26.3742 170.039 26.2494 170.148 26.153C170.227 26.0511 170.287 25.9368 170.326 25.8151C171.722 22.8945 173.151 19.9794 174.513 17.0425C174.671 16.5903 174.923 16.175 175.255 15.8233C175.587 15.4715 175.991 15.1911 176.441 15C178.56 15.0095 180.681 15.0095 182.793 15.0095Z" fill="#B2B2B2"/>
<path d="M205 21.9499C204.951 22.1522 204.901 22.3449 204.831 22.6285H204.384C201.103 22.6285 197.812 22.657 194.531 22.619C192.955 22.665 191.391 22.3372 189.975 21.6637C188.559 20.9903 187.332 19.9916 186.402 18.7539C185.57 17.6629 185.075 16.3642 184.974 15.0095L199.151 15.0095C199.259 15.038 199.368 15.0774 199.477 15.0964C200.728 15.2929 201.894 15.8398 202.831 16.6701C203.767 17.5005 204.435 18.5783 204.752 19.7717C204.86 20.1382 204.92 20.5141 205 20.89V21.9499Z" fill="#919191"/>
<path d="M185.767 34.0001V23.6179H204.594C204.158 24.811 203.359 25.8467 202.304 26.5873C201.152 27.4156 199.751 27.8524 198.319 27.8305H191.716V34.0001H185.767Z" fill="#B2B2B2"/>
</g>
<defs>
<clipPath id="clip0">
<rect width="69" height="19" fill="white" transform="translate(136 15)"/>
</clipPath>
</defs>
</svg>
